<svg xmlns="http://www.w3.org/2000/svg" xmlns:xlink="http://www.w3.org/1999/xlink" viewBox="0 0 128 128"><path fill="#fff" d="M123.9,87.4c-1.8-4-6.7-5.6-10.7-3.9l-3.5,1.5l-0.7-1.4c-1.7-4.1-6.4-6-10.5-4.2l-20.8,9.1c-0.8-1.3-2-2.3-3.5-3L48.4,73.9c-10-4.5-21.7-3.1-30.4,3.6l-3.9,3l-1,1l0,0H4c-1.7,0-3,1.3-3,3v32h12v-5.2l0.9-0.5c3.3-1.9,7.4-2,10.8-0.3l22.2,11.1c5.2,2.5,11.2,2.7,16.6,0.4l56.4-23.8C123.9,96.4,125.8,91.5,123.9,87.4z"/><path fill="#444b54" d="M126.8,86.5c-1.1-2.7-3.3-4.8-6-5.9c-2.7-1.1-5.7-1.1-8.4,0.1l-1.2,0.5c-1.2-2.1-3.1-3.7-5.3-4.6c-2.7-1.1-5.7-1.1-8.4,0.1l-11.6,4.9c-1.5,0.6-2.2,2.4-1.6,3.9c0.5,1.1,1.6,1.8,2.8,1.8c0.4,0,0.8-0.1,1.2-0.2l11.6-4.9c1.2-0.5,2.6-0.5,3.8,0c0.8,0.3,1.4,0.8,1.9,1.4l-23.5,10c0.3-4.5-2.1-8.9-6.5-10.8L49.6,71.2c-11-4.9-23.8-3.4-33.4,3.9l-3.9,3c-0.1,0.1-0.2,0.2-0.3,0.3l-1,1c-0.6,0.6-0.9,1.3-0.9,2.1v32H4c-1.7,0-3,1.3-3,3s1.3,3,3,3h9c1.7,0,3-1.3,3-3V82.7l3.8-2.9c7.9-6,18.3-7.2,27.4-3.2L73,88.2c1.2,0.5,2.2,1.5,2.6,2.8c0.5,1.2,0.4,2.6-0.1,3.8C75,96,74,96.9,72.8,97.4c-1.2,0.5-2.6,0.4-3.8-0.1l-20-8.9c-1.5-0.7-3.3,0-4,1.5c-0.7,1.5,0,3.3,1.5,4l20,8.9c2.7,1.2,5.7,1.3,8.4,0.2c0.4-0.1,0.8-0.3,1.1-0.5c0.2,0,0.3-0.1,0.4-0.1l38.2-16.2c1.2-0.5,2.6-0.5,3.8,0c1.2,0.5,2.2,1.5,2.7,2.7c0.5,1.2,0.5,2.6,0,3.8c-0.5,1.2-1.5,2.2-2.7,2.7l-56.4,23.8c-4.5,1.9-9.7,1.8-14.1-0.4l-23.8-11.6c-1.5-0.7-3.3-0.1-4,1.4c-0.7,1.5-0.1,3.3,1.4,4l23.8,11.6c3.2,1.6,6.6,2.3,10.1,2.3c3,0,6.1-0.6,9-1.8l56.4-23.8c2.7-1.1,4.8-3.3,5.9-6C127.9,92.2,127.9,89.2,126.8,86.5z"/><path fill="#fff" d="M4.5,34L4.5,34L4.5,34c6.2,9.4,16.8,15,28,15l18.9,0c11.3,0,21.8-5.6,28-15v0l0,0h0c-6.2-9.4-16.8-15-28-15H32.5C21.3,19,10.7,24.6,4.5,34z"/><path fill="#444b54" d="M109,31c-6.6,0-12-5.4-12-12s5.4-12,12-12s12,5.4,12,12c0,1.7-0.3,3.3-1,4.8c-0.7,1.5,0,3.3,1.5,4c1.5,0.7,3.3,0,4-1.5c1-2.3,1.5-4.7,1.5-7.2c0-9.9-8.1-18-18-18S91,9.1,91,19c0,4.6,1.8,8.8,4.6,12H79c0,0,0,0,0,0c-1,0-1.9,0.5-2.5,1.3C70.8,40.9,61.3,46,51,46H32c-8.2,0-16-3.3-21.7-9H53c1.7,0,3-1.3,3-3s-1.3-3-3-3H10.3c5.7-5.7,13.5-9,21.7-9H51c5.7,0,11.2,1.6,16.1,4.6c1.4,0.9,3.3,0.4,4.1-1s0.4-3.3-1-4.1C64.4,17.9,57.8,16,51,16H32C19.7,16,8.3,22.1,1.5,32.3c-0.3,0.4-0.4,0.9-0.5,1.3c0,0,0,0.4,0,0.4c0,0.6,0.2,1.1,0.5,1.6C8.3,45.9,19.7,52,32,52H51c11.7,0,22.7-5.6,29.6-15h15.1c-2.9,3.2-4.6,7.4-4.6,12c0,9.9,8.1,18,18,18s18-8.1,18-18S118.9,31,109,31z M109,61c-6.6,0-12-5.4-12-12s5.4-12,12-12s12,5.4,12,12S115.6,61,109,61z"/><g><path fill="#444b54" d="M65 31A3 3 0 1 0 65 37A3 3 0 1 0 65 31Z"/></g></svg>